<svg width="100%" height="100%" viewBox="0 0 440 250"  xmlns="http://www.w3.org/2000/svg">
<g clip-path="url(#clip0)">
<rect width="440" height="250" fill="#0674D2"/>
<circle cx="113" cy="125" r="242" fill="white" fill-opacity="0.06"/>
<path d="M151.549 256.882C156.45 250.015 148.985 238.47 139.56 233.414C134.282 230.547 129.305 229.113 127.194 224.736C125.309 220.964 137.826 218.775 140.842 216.285C146.874 211.154 128.928 206.777 119.578 205.494C127.42 196.59 127.345 181.574 120.031 173.425C111.661 163.992 66.872 144.901 60.4628 181.725C59.0301 189.95 48.4738 192.667 37.5405 194.327C26.0039 196.062 4.28808 198.024 3.15704 207.758C2.02601 217.794 22.837 221.718 31.9607 227.453C41.9138 233.641 18.1621 237.489 11.9791 239.451C-0.0852551 243.224 -8.0779 248.959 0.442562 257.108C18.3129 274.162 55.0338 263.22 81.5 266.012C99.0688 267.823 133.678 281.859 151.549 256.882Z" fill="#287E25"/>
<path d="M19.1427 221.567C44.7795 218.323 73.357 227.981 97.1087 237.112C102.613 239.225 117.166 240.734 117.166 238.923C122.896 228.132 82.7823 229.943 102.839 220.888C113.546 216.813 129.079 214.776 133.83 208.739C139.937 210.777 144.235 213.418 140.767 216.361C137.826 218.851 125.309 221.114 127.119 224.812C129.305 229.113 134.207 230.622 139.485 233.49C148.91 238.545 156.375 250.091 151.474 256.957C133.603 281.934 98.9938 267.823 81.3496 266.012C54.8834 263.22 18.1625 274.162 0.292171 257.108C-8.22829 248.959 -0.235646 243.224 11.8287 239.451C18.0871 237.489 41.8388 233.641 31.8103 227.453C28.6434 225.34 23.8931 223.529 19.1427 221.567Z" fill="#287E25"/>
<path d="M95.3748 155.314C95.3748 155.314 91.3785 156.069 90.0213 158.333C89.4934 159.54 89.1918 160.672 89.5688 161.653C89.9459 162.558 90.5491 163.087 91.4539 163.162C92.2833 163.162 93.1882 162.785 93.9422 162.181C94.6208 161.653 95.4502 160.823 95.9027 159.842C96.9583 157.88 95.3748 155.314 95.3748 155.314Z" fill="#287E25"/>
<path d="M86.9298 155.918C86.9298 155.918 84.4415 157.276 84.2907 159.012C84.1399 160.747 85.1202 162.181 86.402 162.257C87.6838 162.332 88.8903 160.898 88.9657 159.163C89.1919 157.427 86.9298 155.918 86.9298 155.918Z" fill="#287E25"/>
<path d="M118.523 166.407C118.523 166.407 117.693 166.331 116.713 166.407C115.733 166.482 114.376 166.709 113.395 167.312C112.868 167.614 112.415 168.067 112.114 168.369C111.963 168.52 111.812 168.746 111.661 168.897C111.51 169.123 111.435 169.35 111.435 169.501C111.284 170.255 111.51 170.783 112.114 170.934C112.717 171.085 113.546 170.934 114.225 170.708C114.828 170.482 115.808 170.104 116.562 169.576C117.467 169.048 117.919 168.218 118.221 167.539C118.523 166.935 118.523 166.407 118.523 166.407Z" fill="#287E25"/>
<path d="M133.076 194.025C133.076 194.025 132.699 193.346 131.417 192.44C130.211 191.686 127.798 191.006 125.536 191.308C123.349 191.61 121.69 192.063 120.71 192.591C119.654 193.119 118.976 193.723 118.976 194.402C118.976 195.081 119.805 195.685 121.388 195.987C122.897 196.288 124.932 196.213 126.667 196.062C128.325 195.836 129.532 195.308 130.738 194.855C132.096 194.327 133.076 194.025 133.076 194.025Z" fill="#287E25"/>
<path d="M128.476 185.8C128.476 185.8 127.873 185.573 126.742 185.422C125.611 185.272 124.178 185.422 122.896 186.026C120.483 187.158 119.729 189.12 120.785 189.573C121.916 190.025 123.876 189.573 125.762 188.592C126.742 188.214 127.27 187.384 127.722 186.856C128.174 186.328 128.476 185.8 128.476 185.8Z" fill="#287E25"/>
<path d="M46.2873 187.686C46.2873 187.686 45.3071 188.139 44.3268 188.743C43.3466 189.346 42.2156 190.327 41.7632 191.459C40.9337 193.874 42.1402 196.289 43.9498 196.213C44.8547 196.213 45.7595 195.76 46.4381 195.157C47.1167 194.478 47.7953 193.572 48.1724 192.44C48.5494 191.308 48.1724 190.101 47.5691 189.195C46.8905 188.214 46.2873 187.686 46.2873 187.686Z" fill="#287E25"/>
<path d="M38.4458 189.422C38.4458 189.422 36.0329 191.006 36.2591 192.968C36.3345 194.704 37.5409 196.138 38.8982 196.213C40.3308 196.289 41.4619 194.704 41.3111 192.666C41.2357 190.855 38.4458 189.422 38.4458 189.422Z" fill="#287E25"/>
<path d="M11.4521 196.138C11.4521 196.138 11.4521 196.666 11.7538 197.42C12.0554 198.175 12.6586 199.005 13.6388 199.609C15.6747 200.741 17.6351 201.269 18.8416 200.665C19.9726 200.137 19.294 198.326 16.9565 197.043C14.7698 195.685 11.4521 196.138 11.4521 196.138Z" fill="#287E25"/>
<path d="M6.62598 198.401C6.62598 198.401 6.62597 199.911 8.05862 200.665C9.49126 201.495 11.1501 201.722 11.7533 201.269C12.3566 200.816 11.7533 199.76 10.3207 199.005C8.96345 198.175 6.62598 198.401 6.62598 198.401Z" fill="#287E25"/>
<path d="M10.4712 237.414C10.4712 237.414 10.0942 237.866 9.86795 238.47C9.64174 239.149 9.49093 239.979 9.94335 240.734C10.7728 242.167 11.753 243.073 13.1102 243.073C13.7135 243.073 14.2413 242.696 14.4675 242.017C14.7691 241.337 14.6183 240.507 14.1659 239.677C13.7135 238.847 12.7332 238.319 11.9792 237.942C11.1498 237.64 10.4712 237.414 10.4712 237.414Z" fill="#287E25"/>
<path d="M4.74111 238.998C4.74111 238.998 4.5149 239.451 4.4395 240.13C4.36409 240.734 4.28869 241.488 4.6657 242.167C5.49513 243.526 6.92777 244.582 8.0588 244.356C9.18984 244.129 9.56685 242.696 8.66202 241.111C8.1342 240.356 7.22938 239.753 6.24915 239.451C5.34432 239.074 4.74111 238.998 4.74111 238.998Z" fill="#287E25"/>
<path d="M156.3 236.961C156.3 236.961 155.093 236.81 153.434 236.885C151.851 236.961 149.815 237.263 148.307 238.017C145.14 239.602 143.707 241.111 144.16 242.394C144.461 243.073 145.592 243.45 147.251 243.45C148.91 243.375 150.871 242.922 152.68 242.017C154.49 241.186 155.319 239.828 155.847 238.847C156.224 237.791 156.3 236.961 156.3 236.961Z" fill="#287E25"/>
<path d="M158.486 245.94C158.486 245.94 157.582 245.714 156.45 245.488C155.395 245.337 153.887 245.11 152.53 245.412C149.589 245.94 147.478 247.45 148.081 248.355C148.382 248.808 149.212 249.11 150.267 249.185C151.248 249.261 152.605 249.261 154.038 248.959C155.546 248.657 156.677 247.978 157.431 247.223C158.26 246.544 158.486 245.94 158.486 245.94Z" fill="#287E25"/>
<path d="M130.512 241.036C130.512 241.036 129.833 240.658 128.702 240.281C127.646 239.904 126.063 239.526 124.404 239.828C122.67 240.055 121.162 240.658 120.257 241.413C119.352 242.167 119.277 242.922 119.88 243.299C120.483 243.677 121.388 243.752 122.293 243.752C123.198 243.827 124.329 243.752 125.686 243.526C127.043 243.299 128.25 242.771 129.155 242.167C129.984 241.564 130.512 241.036 130.512 241.036Z" fill="#287E25"/>
<path d="M131.869 248.43C131.869 248.43 131.266 248.129 130.361 247.751C129.456 247.45 128.325 247.148 127.194 247.223C124.781 247.223 122.896 247.902 122.745 248.808C122.67 249.638 124.781 250.317 127.495 250.317C128.777 250.241 129.984 249.713 130.738 249.261C131.416 248.883 131.869 248.43 131.869 248.43Z" fill="#287E25"/>
<path d="M32.3379 206.174C32.3379 206.174 32.3379 206.928 32.5641 207.909C32.7903 208.815 33.2427 209.947 34.3737 210.701C36.3342 212.512 39.1241 213.418 40.6321 212.814C42.1402 212.21 41.6124 210.022 39.3503 207.985C38.0685 207.004 36.1834 206.551 34.8262 206.4C33.3935 206.174 32.3379 206.174 32.3379 206.174Z" fill="#287E25"/>
<path d="M42.819 203.91C42.819 203.91 42.1403 204.287 41.4617 205.042C40.7831 205.796 40.3307 206.853 40.5569 207.909C40.7077 208.89 41.3109 209.72 41.6879 210.248C42.1403 210.852 42.8944 211.229 43.6484 211.305C44.4024 211.38 45.1564 211.003 45.6842 210.248C46.2875 209.418 46.3629 208.437 46.1367 207.305C45.9105 206.325 45.0056 205.494 44.327 204.891C43.573 204.363 42.819 203.91 42.819 203.91Z" fill="#287E25"/>
<path d="M52.9232 203.683C52.9986 203.834 50.0579 204.815 49.2284 206.551C48.399 208.362 48.7006 210.173 50.4349 210.55C50.5857 210.475 50.6611 210.324 50.8873 210.324C51.0381 210.324 51.2643 210.324 51.4151 210.248C51.7167 210.173 52.0937 209.947 52.4707 209.72C53.1494 209.267 53.828 208.513 54.205 207.532C55.1098 205.721 52.9986 203.608 52.9232 203.683Z" fill="#287E25"/>
<path d="M59.1062 211.003C59.1062 211.003 58.8046 210.777 58.1259 210.55C57.4473 210.324 56.4671 210.324 55.4868 210.55C53.6018 211.305 53.2248 212.588 53.9034 212.814C54.7328 213.116 55.8638 212.739 56.9949 212.361C57.5981 212.21 57.9751 211.758 58.3521 211.531C58.7291 211.229 59.1062 211.003 59.1062 211.003Z" fill="#287E25"/>
<path d="M105.78 179.914C105.78 179.914 104.8 179.914 103.593 180.291C102.387 180.593 100.954 181.272 100.125 182.102C99.2952 182.932 98.7674 183.687 98.5412 184.291C98.315 184.894 98.2396 185.498 98.692 185.951C99.069 186.403 100.049 186.63 101.406 186.328C102.688 186.026 104.046 185.196 105.026 184.291C106.006 183.31 106.081 182.253 106.081 181.423C105.931 180.518 105.78 179.914 105.78 179.914Z" fill="#287E25"/>
<path d="M97.7117 177.122C97.7117 177.122 94.6956 178.178 94.017 179.989C93.3383 181.8 93.8662 183.385 95.2234 183.611C96.5806 183.838 98.2395 182.555 98.9181 180.744C99.5967 179.008 97.7117 177.122 97.7117 177.122Z" fill="#287E25"/>
<path d="M87.2307 176.594C87.2307 176.594 86.7029 177.047 86.2505 177.726C85.798 178.48 85.421 179.386 85.7226 180.367C86.3259 182.178 87.6077 183.385 89.0404 183.385C90.473 183.385 91.4532 181.574 90.7746 179.612C90.473 178.707 89.4928 177.952 88.7387 177.424C87.9847 176.896 87.2307 176.594 87.2307 176.594Z" fill="#287E25"/>
<path d="M79.3889 180.593C79.3889 180.593 79.0119 182.48 80.3691 183.611C81.651 184.819 83.4607 185.498 84.4409 185.045C85.4211 184.668 85.1195 183.234 83.7623 181.876C82.2542 180.593 79.3889 180.593 79.3889 180.593Z" fill="#287E25"/>
<path d="M109.249 188.214C109.249 188.214 107.816 187.384 106.459 187.535C105.026 187.535 103.895 187.988 103.82 188.516C103.744 189.044 105.026 189.422 106.685 189.346C108.268 189.195 109.249 188.214 109.249 188.214Z" fill="#287E25"/>
<path d="M103.367 210.324C103.367 210.324 102.688 210.248 101.783 210.248C100.879 210.248 99.7475 210.399 98.8427 210.852C97.9379 211.305 97.1839 211.833 96.8068 212.286C96.5806 212.512 96.5052 212.739 96.4298 212.965V213.116C96.3544 213.191 96.7314 213.116 96.8068 213.191C96.9577 213.342 96.8068 213.342 96.8068 213.418C96.8068 213.493 96.7314 213.644 96.656 213.72C96.5806 213.795 96.7314 213.87 96.9576 213.87C97.1839 213.87 97.1085 213.87 97.2593 213.87C97.5609 213.946 97.9379 213.946 98.3903 213.87C99.2197 213.795 100.2 213.493 101.18 213.04C102.16 212.588 102.688 211.909 102.99 211.305C103.291 210.777 103.367 210.324 103.367 210.324Z" fill="#287E25"/>
<path d="M96.4301 204.664C96.4301 204.664 95.2991 204.891 94.0173 205.419C92.7354 205.872 91.2274 206.702 90.398 207.909C88.7391 210.399 89.5685 212.965 91.3782 213.116C92.283 213.267 93.3387 212.889 94.2435 212.286C95.0729 211.682 96.0531 210.777 96.6564 209.72C98.089 207.532 96.4301 204.664 96.4301 204.664Z" fill="#287E25"/>
<path d="M85.5724 204.514C85.5724 204.514 84.9691 205.042 84.2905 205.645C83.6119 206.325 82.9333 207.23 83.0087 208.286C83.0087 209.343 83.3857 210.324 84.0643 211.078C84.3659 211.456 84.8183 211.758 85.1954 211.908C85.5724 212.059 86.0248 212.059 86.4018 211.984C87.759 211.456 88.6638 210.248 88.6638 208.211C88.6638 207.155 87.9098 206.174 87.1558 205.495C86.4018 204.891 85.5724 204.514 85.5724 204.514Z" fill="#287E25"/>
<path d="M78.0321 209.041C78.0321 209.041 77.5043 210.399 78.2583 211.305C79.1632 212.286 80.445 212.889 81.1236 212.588C81.8022 212.286 81.7268 211.229 80.8974 210.324C80.068 209.192 78.0321 209.041 78.0321 209.041Z" fill="#287E25"/>
<path d="M73.2818 212.437C73.2818 212.437 73.131 213.267 73.8851 213.719C74.7145 214.172 75.6193 214.323 75.8455 214.097C76.1471 213.795 75.7701 213.267 75.0915 212.889C74.4883 212.437 73.2818 212.437 73.2818 212.437Z" fill="#287E25"/>
<path d="M117.543 227.906C117.543 227.906 116.412 227.906 114.979 228.057C113.622 228.208 111.888 228.434 110.606 229.113C107.891 230.547 106.232 232.509 107.288 233.49C108.344 234.471 111.586 234.169 114.602 232.66C116.11 231.83 116.94 230.698 117.241 229.641C117.694 228.66 117.543 227.906 117.543 227.906Z" fill="#287E25"/>
<path d="M108.796 225.793C108.796 225.793 108.042 225.944 107.137 226.321C106.232 226.698 105.176 227.227 104.649 227.981C103.367 229.415 103.216 230.924 104.347 231.452C105.403 231.98 107.514 231.075 108.946 229.415C109.55 228.585 109.474 227.604 109.323 226.925C109.097 226.321 108.796 225.793 108.796 225.793Z" fill="#287E25"/>
<path d="M52.9228 220.284C52.9228 220.284 52.4704 220.964 52.1688 221.869C51.8672 222.85 51.8672 224.057 52.4704 225.114C53.0736 226.17 53.7523 226.925 54.5063 227.528C55.2603 228.132 56.0897 228.509 56.9946 228.509C57.8994 228.509 58.7288 227.981 59.1058 227C59.4828 226.095 59.332 224.736 58.578 223.529C57.824 222.322 56.3913 221.567 55.1849 221.039C53.9785 220.511 52.9228 220.284 52.9228 220.284Z" fill="#287E25"/>
<path d="M44.2514 219.077C44.2514 219.077 43.8744 219.756 43.7236 220.737C43.5728 221.718 43.6482 222.925 44.4776 223.982C45.3071 225.038 46.2873 225.868 47.1167 226.321C47.5691 226.547 47.9461 226.623 48.3232 226.623C48.7002 226.774 48.9264 226.849 49.3034 226.849C49.6804 226.849 50.4344 226.925 50.8868 226.623C51.3392 226.321 51.4901 225.717 51.5655 225.265C51.7163 224.208 51.1884 223.001 50.2836 221.944C49.3788 220.813 47.8707 220.133 46.5135 219.681C45.3071 219.228 44.2514 219.077 44.2514 219.077Z" fill="#287E25"/>
<path d="M240.524 247.525C241.052 237.414 226.801 230.245 215.264 222.775C206.216 216.889 211.042 211.078 209.76 204.287C207.724 193.346 189.627 186.554 167.987 186.177C147.477 185.875 124.706 191.082 119.503 201.571C115.205 210.173 120.031 219.002 114.225 227.679C107.967 236.961 93.9418 245.11 90.6241 254.845C87.7588 263.296 98.6922 269.484 111.888 274.087C132.246 281.104 156.073 284.5 178.543 277.859C186.46 275.52 192.116 272.125 199.128 269.257C207.045 266.012 216.471 264.126 224.991 261.334C234.115 258.24 240.222 253.109 240.524 247.525Z" fill="#287E25"/>
<path d="M126.817 259.447C134.658 257.184 118.975 241.337 138.504 241.337C165.875 236.81 197.092 252.656 220.542 239.074C223.105 236.885 226.046 234.169 228.459 231.226C235.321 235.98 240.75 241.111 240.373 247.45C240.071 253.034 233.963 258.165 224.764 261.259C216.319 264.05 206.818 265.937 198.901 269.182C191.964 272.049 186.309 275.52 178.316 277.784C176.205 278.388 111.51 273.936 111.661 274.011C102.311 270.766 94.0921 266.692 91.1514 261.56C103.14 263.07 114.978 262.919 126.817 259.447Z" fill="#287E25"/>
<path d="M136.544 183.913C136.544 183.913 136.167 184.743 136.092 185.875C136.016 186.932 136.092 188.29 137.147 189.422C139.183 191.61 141.596 193.195 144.084 192.968C145.291 192.817 146.045 192.138 146.346 191.082C146.648 189.95 146.12 188.592 144.989 187.158C143.707 185.875 141.671 184.97 139.786 184.517C137.977 184.064 136.544 183.913 136.544 183.913Z" fill="#287E25"/>
<path d="M131.492 189.648C131.492 189.648 130.738 191.384 132.02 192.516C133.377 193.647 135.337 194.327 136.468 194.025C137.599 193.647 137.373 192.365 135.941 191.157C134.508 189.875 131.492 189.648 131.492 189.648Z" fill="#287E25"/>
<path d="M159.919 183.008C159.919 183.008 156.752 184.14 156.224 186.026C155.621 187.686 156.375 189.195 157.883 189.497C159.391 189.799 161.276 188.516 161.879 186.554C162.407 184.668 159.919 183.008 159.919 183.008Z" fill="#287E25"/>
<path d="M170.626 181.876C170.626 181.876 167.082 182.404 165.8 183.913C164.443 185.422 164.443 187.007 165.725 187.384C167.006 187.837 169.193 186.932 170.55 185.347C171.983 183.838 170.626 181.876 170.626 181.876Z" fill="#287E25"/>
<path d="M216.999 207.456C216.999 207.456 211.947 206.249 208.026 207.305C204.18 208.06 201.541 209.72 201.994 211.003C202.446 212.286 206.518 212.588 211.193 211.607C215.491 210.475 216.999 207.456 216.999 207.456Z" fill="#287E25"/>
<path d="M214.435 202.023C214.435 202.023 213.831 201.797 212.927 201.646C211.946 201.495 210.664 201.42 209.458 201.797C207.045 202.476 206.065 203.834 206.894 204.363C207.799 204.891 209.684 204.589 211.494 204.061C212.474 203.834 213.077 203.306 213.605 202.853C214.133 202.401 214.435 202.023 214.435 202.023Z" fill="#287E25"/>
<path d="M223.86 222.397C223.86 222.397 222.955 222.322 221.522 222.397C220.09 222.473 218.431 222.925 217.224 223.756C214.812 225.491 214.962 227.679 216.546 227.906C218.205 228.132 220.24 227.227 221.975 225.944C222.955 225.34 223.257 224.435 223.558 223.756C223.784 223.001 223.86 222.397 223.86 222.397Z" fill="#287E25"/>
<path d="M111.963 224.661C111.963 224.661 112.264 227.302 115.13 228.585C117.618 229.943 120.785 230.471 122.218 229.717C123.65 229.038 122.444 227.151 119.428 225.491C116.487 224.133 111.963 224.661 111.963 224.661Z" fill="#287E25"/>
<path d="M101.783 227.755C101.783 227.755 101.783 228.585 102.085 229.566C102.386 230.622 103.065 231.83 104.724 232.811C106.383 233.716 108.343 234.471 110.077 234.697C110.605 234.772 111.058 234.848 111.435 234.848C111.812 234.848 112.264 234.848 112.792 234.848C113.772 234.772 114.149 234.471 114.149 234.169C114.149 233.867 113.923 233.49 113.923 233.112C113.998 232.886 113.848 232.433 113.621 232.056C113.094 231.301 112.038 230.32 110.454 229.415C108.871 228.509 106.684 228.132 104.95 227.906C103.14 227.679 101.783 227.755 101.783 227.755Z" fill="#287E25"/>
<path d="M98.3154 233.641C98.3154 233.641 98.4662 234.395 98.994 235.301C99.4465 236.131 100.125 237.338 101.633 238.017C104.423 239.602 106.987 240.281 109.098 239.828C110.078 239.526 110.38 238.847 110.078 237.866C109.777 236.81 108.57 235.829 106.987 234.848C105.252 233.942 103.141 233.565 101.332 233.49C99.5219 233.49 98.3154 233.641 98.3154 233.641Z" fill="#287E25"/>
<path d="M155.093 235.829C155.093 235.829 154.113 236.357 153.283 237.263C152.378 238.244 151.7 239.451 152.001 240.734C152.605 243.148 153.962 244.808 156.299 245.11C157.43 245.186 158.486 244.733 159.315 243.828C160.22 242.847 160.446 241.564 160.145 240.13C159.919 238.847 158.486 237.715 157.355 237.036C156.148 236.282 155.093 235.829 155.093 235.829Z" fill="#287E25"/>
<path d="M146.724 235.225C146.724 235.225 145.97 235.678 145.291 236.508C144.612 237.338 144.235 238.47 144.763 239.602C145.744 241.639 147.478 242.922 149.438 242.922C150.343 242.922 151.097 242.394 151.549 241.564C152.002 240.658 151.851 239.602 151.399 238.545C150.946 237.564 149.664 236.734 148.684 236.206C147.704 235.678 146.724 235.225 146.724 235.225Z" fill="#287E25"/>
<path d="M185.178 240.13C185.178 240.13 182.012 240.583 180.73 242.167C179.599 243.526 179.599 244.959 180.881 245.412C182.087 245.789 184.047 244.884 185.329 243.375C185.932 242.696 185.857 241.941 185.706 241.262C185.48 240.583 185.178 240.13 185.178 240.13Z" fill="#287E25"/>
<path d="M214.737 234.622C214.737 234.622 214.133 235.376 213.832 236.508C213.53 237.64 213.53 239.149 214.586 240.356C216.622 242.771 219.185 244.28 221.749 244.054C222.955 243.903 223.785 243.224 224.011 242.092C224.313 240.885 223.785 239.526 222.729 238.168C221.674 236.81 219.562 235.904 217.903 235.376C216.245 234.848 214.737 234.622 214.737 234.622Z" fill="#287E25"/>
<path d="M207.724 236.583C207.724 236.583 206.065 239.526 208.101 241.639C210.137 243.752 213.379 245.035 215.34 244.507C217.3 243.978 217.149 241.715 214.963 239.526C212.851 237.187 207.724 236.583 207.724 236.583Z" fill="#287E25"/>
<path d="M192.719 207.079C192.719 207.079 191.437 207.305 190.004 207.683C188.722 208.06 186.913 208.513 185.857 209.267C183.444 210.777 182.087 212.588 183.294 213.569C184.5 214.55 188.345 214.021 191.437 212.059C192.87 211.003 193.473 209.72 193.247 208.664C193.171 207.683 192.719 207.079 192.719 207.079Z" fill="#287E25"/>
<path d="M183.897 204.438C183.897 204.438 182.992 204.74 182.012 205.268C181.031 205.796 179.9 206.475 179.523 207.306C178.619 209.267 179.297 211.003 180.881 211.154C182.54 211.305 184.5 210.022 185.254 208.287C185.706 207.306 185.329 206.325 184.877 205.57C184.425 204.891 183.897 204.438 183.897 204.438Z" fill="#287E25"/>
<path d="M176.13 200.514C176.13 200.514 172.435 202.25 172.209 204.514C171.983 206.777 173.491 208.664 175.451 208.739C177.412 208.815 179.146 207.004 179.372 204.74C179.523 202.401 176.13 200.514 176.13 200.514Z" fill="#287E25"/>
<path d="M164.443 199.231C164.443 199.231 163.689 199.986 163.161 201.193C162.633 202.325 162.331 203.759 162.935 205.042C163.538 206.325 164.367 207.306 165.197 208.06C166.026 208.815 167.082 209.343 168.364 209.494C169.645 209.569 170.927 209.041 171.757 207.909C172.511 206.777 172.586 205.117 171.832 203.608C171.078 202.023 169.118 200.967 167.459 200.288C165.875 199.609 164.443 199.231 164.443 199.231Z" fill="#287E25"/>
<path d="M155.018 203.231C155.018 203.231 153.585 205.419 155.018 207.079C156.375 208.739 158.185 209.72 159.843 209.569C161.502 209.418 162.03 207.456 160.447 205.57C158.939 203.759 155.018 203.231 155.018 203.231Z" fill="#287E25"/>
<path d="M147.553 206.626C147.553 206.626 147.478 207.004 147.478 207.381C147.553 207.758 147.553 208.286 147.93 208.739C148.684 209.569 149.664 210.173 150.644 210.097C151.549 210.022 152.002 208.89 151.021 207.834C150.494 207.305 149.664 206.928 148.835 206.777C148.081 206.626 147.553 206.626 147.553 206.626Z" fill="#287E25"/>
<path d="M174.17 221.114C174.17 221.114 173.114 221.492 172.058 222.02C171.003 222.548 169.645 223.227 169.042 224.133C167.685 225.944 167.459 227.83 169.118 228.358C170.701 228.887 173.642 227.83 175.301 225.642C175.979 224.51 175.904 223.378 175.376 222.473C174.773 221.643 174.17 221.114 174.17 221.114Z" fill="#287E25"/>
<path d="M165.725 222.02C165.725 222.02 164.971 222.246 164.141 222.624C163.312 223.076 162.332 223.756 162.03 224.661C161.502 226.246 162.332 227.679 163.764 227.906C165.197 228.057 166.705 226.849 167.157 225.189C167.459 224.435 167.082 223.68 166.63 223.076C166.253 222.473 165.725 222.02 165.725 222.02Z" fill="#287E25"/>
<path d="M149.513 216.662C149.513 216.662 149.664 216.587 150.041 216.662C150.192 216.738 150.192 216.813 150.192 216.889C150.192 217.04 150.117 217.191 149.966 217.342C149.74 217.719 149.438 218.247 149.136 218.926C148.533 220.209 148.156 221.794 148.91 223.303C149.74 224.812 150.871 226.095 152.152 226.925C153.434 227.755 154.641 228.132 156.073 228.208C157.506 228.283 158.863 227.453 159.391 226.095C159.919 224.812 159.768 223.152 158.939 221.492C158.034 219.832 155.923 218.549 153.962 217.794C152.982 217.417 152.077 217.115 151.398 216.889C151.021 216.813 150.72 216.738 150.494 216.662C150.343 216.662 150.192 216.587 150.041 216.587C149.664 216.511 149.513 216.738 149.513 216.662Z" fill="#287E25"/>
<path d="M143.783 221.643C143.783 221.643 143.406 222.171 143.105 222.775C142.803 223.454 142.577 224.284 143.18 225.189C143.783 226.095 144.764 226.849 146.045 227.302C146.573 227.528 147.252 227.604 147.855 227.604C148.383 227.604 148.684 227.453 148.835 227.227C149.137 226.321 149.288 225.566 148.232 224.057C147.78 223.303 146.649 222.699 145.668 222.246C144.613 221.794 143.783 221.643 143.783 221.643Z" fill="#287E25"/>
<path d="M137.223 225.038C137.223 225.038 137.6 226.321 138.957 226.925C140.163 227.604 141.747 227.83 142.425 227.453C143.104 227.076 142.576 226.17 141.068 225.34C140.239 225.038 139.259 224.887 138.504 224.887C137.75 224.887 137.223 225.038 137.223 225.038Z" fill="#287E25"/>
<path d="M179.297 227.679C179.297 227.679 178.92 227.604 178.317 227.604C177.713 227.604 176.959 227.679 176.356 228.057C175.074 228.736 175.074 229.792 175.753 229.868C176.507 229.943 177.336 229.641 178.241 229.188C178.694 228.962 178.92 228.585 179.146 228.283C179.222 227.981 179.297 227.679 179.297 227.679Z" fill="#287E25"/>
<path d="M50.5103 131.545H46.0615V196.213H50.5103V131.545Z" fill="#AF7228"/>
<path d="M37.0133 156.295C32.7153 154.333 29.85 149.806 28.7944 146.335C27.4372 141.807 31.3581 141.204 36.1838 143.317C31.7351 139.015 26.8339 132.224 28.342 126.716C30.8303 127.168 32.7153 128.527 33.6201 130.262C31.3581 127.47 30.9057 123.471 30.9057 120.377C30.9057 118.566 33.6956 111.624 36.1084 116.529C34.148 110.718 33.9218 104.833 32.7153 99.0222C31.9613 95.6266 29.6238 89.5899 33.3939 86.7225C35.0528 87.7034 36.1838 89.2126 36.8624 90.6463C32.8661 82.5722 33.6201 69.8952 40.708 62.7266C41.2358 63.783 42.3668 64.6885 42.97 65.8204C40.7834 59.7837 42.216 53.9734 46.0615 48.4649C50.1333 49.8232 48.399 57.7463 49.2284 60.3119C54.0542 56.0862 56.5424 64.1603 56.6178 66.575C56.7687 70.7252 55.1852 74.9509 55.6376 79.1766C55.4114 77.5165 56.5424 74.8755 59.2569 74.8755C62.8762 74.8755 62.5746 78.0447 62.4238 79.7803C62.0468 83.855 62.7254 89.2881 58.5029 92.4573C63.027 87.7789 64.1581 91.1745 63.7811 95.1738C63.3287 99.7768 62.0468 104.229 60.9158 108.756C62.5746 106.417 65.9677 103.172 67.325 107.021C68.1544 109.36 68.1544 111.775 68.0036 114.189C67.8528 116.83 67.7774 125.131 63.3287 126.338C66.7218 121.509 68.7576 128.753 68.1544 131.092C67.1742 135.167 63.9319 138.638 62.4238 142.562C63.6303 141.581 64.9121 140.826 66.2693 141.506C74.7144 145.731 60.9912 155.088 52.1691 158.559C48.4744 159.993 40.7834 157.05 37.0133 156.295Z" fill="#48A34B"/>
<path d="M45.7592 183.762C40.7827 172.67 48.3229 154.032 57.8236 145.807C63.1771 141.204 68.1537 138.789 70.3404 131.847C72.2254 125.81 59.5578 122.188 56.6171 118.113C50.5095 109.737 68.6061 102.72 78.0314 100.607C70.1142 86.1188 70.1896 61.8965 77.579 48.6913C86.024 33.4486 131.19 2.58599 137.675 62.1229C139.107 75.4036 149.739 79.8557 160.823 82.4968C172.435 85.2887 194.377 88.5335 195.508 104.229C196.715 120.528 175.677 126.866 166.403 136.072C156.299 146.033 180.352 152.372 186.611 155.465C198.826 161.578 206.894 170.859 198.298 184.064C180.277 211.682 143.179 193.949 116.487 198.477C98.767 201.344 63.8558 224.133 45.7592 183.762Z" fill="#54BA5F"/>
<path d="M179.447 126.565C153.584 121.358 124.781 136.978 100.727 151.692C95.2229 155.088 80.5195 157.503 80.5195 154.56C74.7135 137.053 115.205 139.996 94.9967 125.433C84.1388 118.868 68.5305 115.548 63.7047 105.814C57.5972 109.058 53.2238 113.359 56.6923 118.113C59.7084 122.188 72.3006 125.81 70.4156 131.847C68.2289 138.864 63.2523 141.204 57.8988 145.807C48.3981 154.032 40.8579 172.67 45.8344 183.762C63.931 224.133 98.7668 201.344 116.637 198.401C143.33 193.949 180.427 211.607 198.449 183.989C207.045 170.783 198.976 161.502 186.761 155.39C180.503 152.221 156.45 145.958 166.553 135.997C169.796 132.677 174.622 129.734 179.447 126.565Z" fill="#48A34B"/>
<path d="M107.438 285.103H118.447V154.937C115.054 156.597 111.359 158.031 107.438 159.238V285.103Z" fill="#AF7228"/>
<path d="M113.697 169.576C113.395 169.576 113.094 169.576 112.792 169.576L112.867 165.501C119.126 165.728 134.583 164.143 141.219 145.656L144.763 147.089C137.524 167.539 120.181 169.576 113.697 169.576Z" fill="#AF7228"/>
<path d="M112.942 199.307V195.232C164.819 194.855 170.625 157.88 170.701 157.503L174.471 158.106C174.32 158.559 167.986 198.854 112.942 199.307Z" fill="#AF7228"/>
<path d="M164.443 175.537C154.339 166.86 157.431 156.673 157.582 156.22L161.126 157.578L159.316 156.899L161.126 157.578C161.05 157.88 158.788 165.501 166.705 172.368L164.443 175.537Z" fill="#AF7228"/>
<path d="M114.376 234.772C101.03 234.772 90.6996 230.773 83.6872 223.001C73.8095 212.059 74.1865 197.798 74.1865 197.119L77.9566 197.27C77.9566 197.42 77.655 210.55 86.4016 220.209C92.66 227.151 102.085 230.698 114.301 230.698V234.772H114.376Z" fill="#AF7228"/>
<path d="M135.036 146.335H131.19V160.898H135.036V146.335Z" fill="#AF7228"/>
<path d="M90.699 199.458H86.8535V225.566H90.699V199.458Z" fill="#AF7228"/>
<path d="M102.462 19.3378C102.462 19.3378 106.459 20.5452 107.891 24.2426C108.494 26.2046 108.796 28.0156 108.344 29.6002C107.967 31.1094 107.363 31.9394 106.459 32.0149C105.629 32.0904 104.724 31.3358 103.97 30.4303C103.292 29.6002 102.462 28.242 102.01 26.6573C100.879 23.4881 102.462 19.3378 102.462 19.3378Z" fill="#54BA5F"/>
<path d="M110.982 20.2433C110.982 20.2433 113.471 22.4317 113.622 25.2236C113.772 28.0156 112.792 30.3548 111.435 30.4303C110.078 30.5057 108.947 28.242 108.796 25.45C108.72 22.658 110.982 20.2433 110.982 20.2433Z" fill="#54BA5F"/>
<path d="M79.1631 37.2216C79.1631 37.2216 79.9925 37.1461 80.9727 37.2216C81.953 37.297 83.3102 37.6743 84.3658 38.6553C84.8937 39.108 85.3461 39.7872 85.6477 40.3908C85.7985 40.6927 85.9493 40.9945 86.1001 41.2963C86.2509 41.6736 86.3263 41.9755 86.3263 42.2773C86.4771 43.4846 86.2509 44.3147 85.6477 44.6165C85.0445 44.9183 84.215 44.692 83.461 44.3147C82.8578 43.9374 81.8022 43.3337 81.0481 42.5037C80.1433 41.5982 79.6909 40.3908 79.3893 39.2589C79.1631 38.0516 79.1631 37.2216 79.1631 37.2216Z" fill="#54BA5F"/>
<path d="M64.459 81.8931C64.459 81.8931 64.836 80.7612 66.1178 79.403C67.3243 78.1957 69.8125 77.1392 72.0746 77.5165C74.3367 77.9693 75.9201 78.7993 76.9758 79.6294C78.0314 80.4594 78.71 81.4404 78.71 82.5723C78.71 83.6287 77.8806 84.6096 76.2971 85.1378C74.7891 85.5906 72.7532 85.5906 71.019 85.2133C69.2847 84.9115 68.1537 84.006 66.8719 83.2514C65.4392 82.4213 64.459 81.8931 64.459 81.8931Z" fill="#54BA5F"/>
<path d="M69.0586 68.6124C69.0586 68.6124 69.6618 68.2351 70.8683 68.0087C72.0747 67.7823 73.5073 68.0842 74.7138 68.9897C77.202 70.8761 77.9561 73.9699 76.825 74.7245C75.694 75.4791 73.6581 74.7245 71.7731 73.1399C70.7929 72.4608 70.265 71.178 69.8126 70.3479C69.3602 69.5179 69.0586 68.6124 69.0586 68.6124Z" fill="#54BA5F"/>
<path d="M152.077 71.7062C152.077 71.7062 153.057 72.3853 154.037 73.4417C155.018 74.4227 156.224 75.9319 156.601 77.8183C157.431 81.7422 156.224 85.5906 154.414 85.5151C153.51 85.5906 152.605 84.836 151.926 83.7796C151.248 82.7231 150.569 81.1385 150.192 79.403C149.815 77.5165 150.192 75.63 150.795 74.1209C151.398 72.6117 152.077 71.7062 152.077 71.7062Z" fill="#54BA5F"/>
<path d="M159.918 74.5736C159.918 74.5736 162.331 77.2147 162.105 80.3085C162.03 83.1759 160.823 85.4397 159.39 85.5906C157.958 85.7415 156.751 83.1759 156.978 79.9312C157.128 76.8374 159.918 74.5736 159.918 74.5736Z" fill="#54BA5F"/>
<path d="M187.214 85.3642C187.214 85.3642 187.214 86.2697 186.913 87.4016C186.611 88.5335 186.008 89.9672 185.028 90.8727C182.992 92.6837 181.031 93.5138 179.825 92.6083C178.694 91.7782 179.372 88.7599 181.71 86.7225C183.897 84.6851 187.214 85.3642 187.214 85.3642Z" fill="#54BA5F"/>
<path d="M192.04 89.0617C192.04 89.0617 192.04 91.4763 190.532 92.7591C189.099 94.0419 187.44 94.4192 186.761 93.7401C186.158 92.9855 186.761 91.3254 188.269 90.0426C189.702 88.6844 192.04 89.0617 192.04 89.0617Z" fill="#54BA5F"/>
<path d="M188.194 152.221C188.194 152.221 188.571 152.9 188.797 153.956C189.024 155.013 189.174 156.371 188.722 157.578C187.893 159.842 186.912 161.427 185.555 161.427C184.952 161.351 184.424 160.823 184.198 159.767C183.896 158.71 184.047 157.276 184.5 155.918C184.952 154.56 185.932 153.654 186.686 153.126C187.44 152.522 188.194 152.221 188.194 152.221Z" fill="#48A34B"/>
<path d="M194.001 154.711C194.001 154.711 194.227 155.465 194.302 156.522C194.378 157.503 194.453 158.71 194.076 159.842C193.247 162.03 191.814 163.766 190.607 163.389C189.476 163.011 189.099 160.672 190.004 158.106C190.532 156.824 191.512 155.918 192.417 155.39C193.322 154.862 194.001 154.711 194.001 154.711Z" fill="#48A34B"/>
<path d="M41.0088 151.466C41.0088 151.466 42.2152 151.24 43.8741 151.391C45.5329 151.541 47.4934 151.919 49.0768 153.202C52.2437 155.692 53.7518 158.182 53.2994 160.37C52.9978 161.427 51.8667 162.106 50.2079 162.03C48.549 161.955 46.5132 161.125 44.7789 159.766C42.9692 158.408 42.0644 156.295 41.612 154.56C41.0842 152.824 41.0088 151.466 41.0088 151.466Z" fill="#48A34B"/>
<path d="M38.7471 166.03C38.7471 166.03 39.6519 165.577 40.7829 165.275C41.8386 164.973 43.3466 164.671 44.7039 165.124C47.6445 166.03 49.8312 168.444 49.1526 169.878C48.851 170.633 48.0216 171.085 46.9659 171.236C45.9857 171.387 44.6285 171.312 43.1958 170.859C41.6878 170.406 40.5567 169.274 39.7273 168.067C39.0487 166.935 38.7471 166.03 38.7471 166.03Z" fill="#48A34B"/>
<path d="M67.0225 158.031C67.0225 158.031 67.7011 157.352 68.9075 156.748C70.0386 156.145 71.5466 155.541 73.2808 155.994C75.0151 156.446 76.5231 157.276 77.5034 158.559C78.4082 159.767 78.4836 161.049 77.8804 161.578C77.2772 162.106 76.3723 162.257 75.4675 162.332C74.5627 162.408 73.4316 162.332 72.0744 162.03C70.7172 161.728 69.4353 160.747 68.5305 159.842C67.5503 158.861 67.0225 158.031 67.0225 158.031Z" fill="#48A34B"/>
<path d="M65.666 170.029C65.666 170.029 66.2692 169.501 67.1741 168.972C68.0789 168.444 69.2099 167.991 70.4164 168.142C72.8292 168.142 74.7897 169.274 74.8651 170.633C74.9405 171.991 72.8292 173.123 70.1148 173.123C68.7575 172.972 67.6265 172.142 66.8725 171.463C66.1184 170.708 65.666 170.029 65.666 170.029Z" fill="#48A34B"/>
<path d="M197.091 191.384C197.091 191.384 196.036 191.61 194.829 191.686C193.698 191.761 192.115 191.836 190.833 191.233C188.119 189.95 186.007 187.686 186.61 186.102C187.214 184.517 190.004 184.14 193.17 185.498C194.754 186.328 195.885 187.686 196.413 189.12C196.941 190.478 197.091 191.384 197.091 191.384Z" fill="#48A34B"/>
<path d="M190.908 199.533C190.908 199.533 188.269 199.458 186.912 198.1C185.555 196.817 184.65 195.534 184.952 194.327C185.178 193.195 187.591 193.119 189.476 194.93C191.21 196.666 190.908 199.533 190.908 199.533Z" fill="#48A34B"/>
<path d="M56.0893 208.664C56.0893 208.664 55.5615 204.74 57.145 202.25C58.7284 199.835 60.5381 198.326 62.0461 198.854C63.4787 199.307 63.6296 202.778 61.6691 205.645C59.784 208.437 56.0893 208.664 56.0893 208.664Z" fill="#48A34B"/>
<path d="M166.101 101.663C166.101 101.663 166.101 102.871 165.875 104.38C165.649 105.889 165.197 107.7 164.066 108.907C162.105 111.85 159.24 113.284 157.732 112.303C156.224 111.247 156.751 107.775 159.014 104.455C160.295 102.946 162.18 102.192 163.613 101.89C165.046 101.588 166.101 101.663 166.101 101.663Z" fill="#90D786"/>
<path d="M155.47 97.9658C155.47 97.9658 156.149 98.5695 156.827 99.7768C157.506 101.06 157.958 102.72 157.732 104.455C157.581 106.04 156.978 107.398 156.601 108.228C156.149 109.134 155.395 109.888 154.641 109.964C153.811 110.115 153.133 109.511 152.605 108.228C152.002 106.945 151.926 105.285 152.152 103.474C152.379 101.814 153.359 100.531 153.962 99.5505C154.716 98.6449 155.47 97.9658 155.47 97.9658Z" fill="#90D786"/>
<path d="M145.291 97.5885C145.215 97.8149 148.231 99.3995 148.985 102.267C149.815 105.134 149.513 108.077 147.704 108.681C147.553 108.606 147.477 108.379 147.251 108.304C147.1 108.379 146.874 108.228 146.723 108.153C146.346 108.002 146.045 107.7 145.668 107.323C144.989 106.568 144.31 105.285 143.858 103.852C143.179 100.833 145.215 97.4376 145.291 97.5885Z" fill="#90D786"/>
<path d="M139.107 109.436C139.107 109.436 139.409 109.058 140.088 108.681C140.766 108.228 141.822 108.304 142.802 108.756C144.687 109.964 145.14 112.077 144.386 112.454C143.556 112.907 142.425 112.303 141.294 111.699C140.691 111.473 140.314 110.718 139.937 110.416C139.484 109.813 139.107 109.436 139.107 109.436Z" fill="#90D786"/>
<path d="M91.9811 59.1046C91.9811 59.1046 92.9613 59.1046 94.1678 59.6328C95.3742 60.161 96.8068 61.2174 97.7117 62.5002C98.5411 63.8585 99.0689 65.0658 99.2951 66.0468C99.5213 67.0277 99.5967 68.0087 99.1443 68.7633C98.7673 69.5179 97.7117 69.8197 96.4298 69.367C95.148 68.9142 93.7153 67.6314 92.8105 66.0468C91.8303 64.4621 91.7549 62.7266 91.7549 61.4438C91.8303 60.161 91.9811 59.1046 91.9811 59.1046Z" fill="#90D786"/>
<path d="M100.124 54.5771C100.124 54.5771 103.14 56.2371 103.819 59.18C104.498 62.0475 103.97 64.6885 102.613 65.0658C101.255 65.4431 99.5965 63.4057 98.9179 60.4628C98.2393 57.5954 100.124 54.5771 100.124 54.5771Z" fill="#90D786"/>
<path d="M110.681 53.747C110.681 53.747 111.209 54.5016 111.661 55.6335C112.114 56.8408 112.491 58.35 112.189 59.8592C111.586 62.8021 110.304 64.764 108.796 64.764C107.363 64.764 106.383 61.8211 107.062 58.6518C107.363 57.1427 108.344 55.9353 109.098 55.1053C109.927 54.2752 110.681 53.747 110.681 53.747Z" fill="#90D786"/>
<path d="M118.598 60.2365C118.598 60.2365 118.975 63.3303 117.543 65.1413C116.261 67.1032 114.451 68.1596 113.471 67.4805C112.491 66.8014 112.792 64.5376 114.15 62.3493C115.733 60.3119 118.598 60.2365 118.598 60.2365Z" fill="#90D786"/>
<path d="M88.4375 72.5362C88.4375 72.5362 89.8701 71.2534 91.3028 71.4043C92.7354 71.4798 93.8665 72.1589 93.9419 72.989C94.0173 73.819 92.7354 74.4227 91.0766 74.3472C89.4931 74.1963 88.4375 72.5362 88.4375 72.5362Z" fill="#90D786"/>
<path d="M94.4697 108.304C94.4697 108.304 95.1484 108.228 96.1286 108.228C97.0334 108.228 98.1644 108.455 99.0693 109.209C99.9741 109.964 100.728 110.794 101.105 111.548C101.331 111.926 101.407 112.303 101.482 112.68V112.907C101.558 113.058 101.181 112.907 101.105 113.058C100.954 113.284 101.105 113.284 101.105 113.435C101.105 113.586 101.181 113.737 101.256 113.963C101.331 114.039 101.181 114.114 100.954 114.189C100.728 114.114 100.728 114.265 100.653 114.265C100.351 114.34 99.9741 114.34 99.5217 114.34C98.6923 114.189 97.6366 113.737 96.7318 113.058C95.7516 112.303 95.2238 111.171 94.9221 110.266C94.4697 109.134 94.4697 108.304 94.4697 108.304Z" fill="#90D786"/>
<path d="M101.406 99.1732C101.406 99.1732 102.537 99.5505 103.819 100.305C105.101 101.06 106.684 102.418 107.438 104.38C109.097 108.379 108.267 112.529 106.458 112.831C105.553 113.058 104.497 112.454 103.593 111.397C102.763 110.417 101.783 108.983 101.18 107.247C99.747 103.776 101.406 99.1732 101.406 99.1732Z" fill="#90D786"/>
<path d="M112.34 99.0222C112.34 99.0222 112.943 99.8523 113.621 100.909C114.3 102.041 114.979 103.399 114.979 105.134C114.979 106.794 114.602 108.455 113.923 109.662C113.621 110.266 113.169 110.718 112.717 111.02C112.34 111.247 111.887 111.322 111.51 111.171C110.153 110.341 109.248 108.379 109.248 105.059C109.248 103.399 110.002 101.814 110.756 100.682C111.586 99.5504 112.34 99.0222 112.34 99.0222Z" fill="#90D786"/>
<path d="M119.955 106.191C119.955 106.191 120.483 108.379 119.653 109.813C118.749 111.397 117.467 112.378 116.788 111.85C116.11 111.322 116.185 109.662 117.014 108.153C117.919 106.568 119.955 106.191 119.955 106.191Z" fill="#90D786"/>
<path d="M124.781 111.699C124.781 111.699 124.932 112.982 124.178 113.812C123.349 114.567 122.444 114.869 122.142 114.416C121.841 113.963 122.218 113.133 122.896 112.454C123.575 111.699 124.781 111.699 124.781 111.699Z" fill="#90D786"/>
<path d="M80.0679 136.827C80.0679 136.827 81.199 136.752 82.6316 137.053C83.9889 137.28 85.7231 137.657 87.0804 138.789C89.7948 141.053 91.5291 144.222 90.3981 145.807C89.3424 147.391 86.1001 146.939 83.0086 144.448C81.5006 143.09 80.5958 141.204 80.2942 139.544C79.9925 137.959 80.0679 136.827 80.0679 136.827Z" fill="#54BA5F"/>
<path d="M88.9651 133.431C88.9651 133.431 89.7192 133.733 90.6994 134.337C91.6042 134.941 92.6599 135.771 93.1877 136.978C94.4695 139.242 94.6203 141.807 93.4893 142.637C92.4336 143.467 90.3224 142.034 88.8143 139.393C88.2111 138.034 88.2865 136.45 88.4373 135.318C88.5881 134.186 88.9651 133.431 88.9651 133.431Z" fill="#54BA5F"/>
<path d="M145.291 124.452C145.291 124.452 145.819 125.508 146.045 127.093C146.347 128.678 146.347 130.639 145.743 132.3C145.14 133.96 144.386 135.242 143.632 136.148C142.878 137.053 142.049 137.733 141.144 137.733C140.239 137.733 139.41 136.903 139.033 135.318C138.656 133.809 138.806 131.62 139.56 129.658C140.314 127.697 141.747 126.414 143.029 125.659C144.235 124.829 145.291 124.452 145.291 124.452Z" fill="#54BA5F"/>
<path d="M154.113 122.565C154.113 122.565 154.49 123.697 154.64 125.282C154.791 126.867 154.716 128.828 153.811 130.489C152.982 132.149 152.001 133.507 151.097 134.186C150.644 134.563 150.267 134.714 149.89 134.714C149.513 134.941 149.287 135.092 148.835 135.092C148.457 135.092 147.703 135.242 147.251 134.79C146.799 134.337 146.648 133.356 146.572 132.526C146.422 130.79 146.949 128.904 147.854 127.093C148.759 125.282 150.343 124.15 151.624 123.471C153.057 122.792 154.113 122.565 154.113 122.565Z" fill="#54BA5F"/>
<path d="M151.776 264.05C155.319 262.089 157.657 257.636 158.486 254.165C159.617 249.713 156.375 249.11 152.454 251.223C156.074 246.997 160.07 240.206 158.788 234.773C156.752 235.15 155.244 236.584 154.49 238.319C156.3 235.603 156.752 231.603 156.752 228.509C156.752 226.698 154.49 219.832 152.53 224.736C154.113 219.002 154.264 213.116 155.32 207.306C155.923 203.91 157.808 197.949 154.792 195.081C153.434 195.987 152.53 197.571 151.926 199.005C155.244 191.006 154.641 178.329 148.835 171.312C148.382 172.368 147.478 173.274 147.025 174.33C148.835 168.293 147.628 162.634 144.462 157.125C141.144 158.484 142.577 166.331 141.898 168.897C137.902 164.671 135.941 172.745 135.866 175.16C135.715 179.31 136.997 183.536 136.695 187.611C136.921 186.026 136.017 183.385 133.754 183.385C130.814 183.385 131.04 186.479 131.115 188.29C131.417 192.289 130.889 197.722 134.358 200.892C130.663 196.213 129.683 199.609 129.984 203.608C130.361 208.136 131.417 212.588 132.322 217.115C130.965 214.776 128.175 211.531 127.119 215.38C126.44 217.643 126.44 220.134 126.591 222.473C126.742 225.114 126.817 233.339 130.437 234.546C127.647 229.717 125.988 236.961 126.44 239.225C127.27 243.224 129.909 246.77 131.191 250.619C130.211 249.638 129.155 248.883 128.024 249.562C121.162 253.788 132.397 263.07 139.56 266.465C142.426 267.748 148.759 264.805 151.776 264.05Z" fill="#AEDA3A"/>
<path d="M189.991 240.151C189.686 230.61 197.448 223.943 203.743 216.909C208.633 211.404 206.066 205.899 206.738 199.538C207.838 189.323 217.678 182.901 229.474 182.534C240.598 182.228 253.006 187.121 255.817 196.969C258.14 205.042 255.511 213.361 258.69 221.496C262.051 230.181 269.691 237.888 271.525 247.002C273.114 254.892 267.124 260.764 259.973 265.046C248.911 271.652 235.953 274.771 223.729 268.593C219.39 266.391 216.334 263.211 212.544 260.458C208.266 257.4 203.132 255.626 198.487 252.996C193.475 250.183 190.175 245.412 189.991 240.151Z" fill="#54BA5F"/>
<path d="M251.721 251.406C247.443 249.265 255.939 234.402 245.365 234.402C230.513 230.181 213.522 245.045 200.809 232.261C199.403 230.181 197.814 227.674 196.469 224.921C192.741 229.386 189.807 234.218 189.991 240.151C190.174 245.412 193.474 250.182 198.486 253.057C203.07 255.687 208.265 257.461 212.544 260.519C216.333 263.211 219.389 266.452 223.729 268.654C235.953 274.832 248.91 271.713 259.973 265.107C265.046 262.049 269.507 258.195 271.158 253.424C264.618 254.77 258.2 254.586 251.721 251.406Z" fill="#48A34B"/>
<path d="M226.419 308.228H232.348V247.43C230.514 248.225 228.558 248.898 226.419 249.387V308.228Z" fill="#AF7228"/>
<path d="M229.78 254.158C229.658 254.158 229.475 254.158 229.353 254.158L229.414 252.262C232.531 252.384 240.11 251.65 243.41 243.148L245.183 243.821C241.515 253.241 232.959 254.158 229.78 254.158Z" fill="#AF7228"/>
<path d="M228.313 258.868C221.712 258.868 216.64 257.033 213.156 253.424C208.327 248.409 208.45 241.803 208.45 241.497L210.344 241.558C210.344 241.619 210.222 247.675 214.5 252.14C217.617 255.32 222.263 256.972 228.313 256.972V258.868Z" fill="#AF7228"/>
<path d="M240.294 243.516H238.399V250.244H240.294V243.516Z" fill="#AF7228"/>
<path d="M216.643 242.598H214.748V254.647H216.643V242.598Z" fill="#AF7228"/>
<path d="M246.466 180.515C246.466 180.515 246.65 181.31 246.711 182.35C246.711 183.39 246.711 184.613 246.161 185.653C245.061 187.733 243.716 189.139 242.432 188.956C241.76 188.834 241.393 188.161 241.21 187.182C241.027 186.142 241.332 184.858 241.944 183.512C242.616 182.289 243.777 181.433 244.755 181.066C245.733 180.576 246.466 180.515 246.466 180.515Z" fill="#54BA5F"/>
<path d="M249.215 185.836C249.215 185.836 249.643 187.488 248.91 188.589C248.176 189.69 247.137 190.302 246.526 189.996C245.915 189.69 246.037 188.467 246.832 187.304C247.565 186.081 249.215 185.836 249.215 185.836Z" fill="#54BA5F"/>
<path d="M233.752 179.598C233.752 179.598 235.464 180.699 235.769 182.411C236.136 183.94 235.708 185.347 234.852 185.653C234.058 185.898 233.019 184.736 232.713 182.901C232.408 181.188 233.752 179.598 233.752 179.598Z" fill="#54BA5F"/>
<path d="M227.946 178.558C227.946 178.558 229.841 179.047 230.574 180.454C231.308 181.861 231.308 183.329 230.574 183.696C229.841 184.124 228.68 183.268 227.946 181.8C227.213 180.393 227.946 178.558 227.946 178.558Z" fill="#54BA5F"/>
<path d="M202.766 202.596C202.766 202.596 205.516 201.434 207.655 202.412C209.733 203.146 211.2 204.675 210.895 205.899C210.65 207.122 208.45 207.367 205.883 206.449C203.621 205.409 202.766 202.596 202.766 202.596Z" fill="#54BA5F"/>
<path d="M204.171 197.458C204.171 197.458 204.476 197.274 205.027 197.152C205.577 197.03 206.249 196.968 206.921 197.274C208.266 197.947 208.755 199.232 208.327 199.66C207.838 200.149 206.799 199.904 205.821 199.354C205.271 199.109 204.965 198.62 204.66 198.253C204.293 197.825 204.171 197.458 204.171 197.458Z" fill="#54BA5F"/>
<path d="M199.037 216.603C199.037 216.603 199.526 216.541 200.321 216.603C201.115 216.664 201.971 217.092 202.643 217.826C203.927 219.477 203.866 221.496 203.01 221.741C202.093 221.985 200.993 221.129 200.076 219.906C199.526 219.294 199.404 218.499 199.22 217.826C199.098 217.153 199.037 216.603 199.037 216.603Z" fill="#54BA5F"/>
<path d="M259.85 218.682C259.85 218.682 259.667 221.129 258.139 222.413C256.794 223.698 255.083 224.187 254.288 223.514C253.494 222.842 254.166 221.068 255.816 219.6C257.344 218.254 259.85 218.682 259.85 218.682Z" fill="#54BA5F"/>
<path d="M265.354 221.618C265.354 221.618 265.354 222.352 265.232 223.331C265.048 224.31 264.682 225.472 263.765 226.389C262.848 227.246 261.809 227.918 260.831 228.163C260.526 228.224 260.281 228.285 260.098 228.285C259.914 228.285 259.67 228.285 259.364 228.285C258.814 228.163 258.631 227.918 258.631 227.613C258.631 227.307 258.753 226.94 258.753 226.634C258.692 226.389 258.814 226.022 258.936 225.655C259.242 224.921 259.792 224.004 260.648 223.209C261.503 222.352 262.665 221.985 263.643 221.802C264.621 221.557 265.354 221.618 265.354 221.618Z" fill="#54BA5F"/>
<path d="M267.247 227.184C267.247 227.184 267.125 227.918 266.881 228.775C266.636 229.57 266.269 230.671 265.475 231.344C263.947 232.812 262.541 233.484 261.441 233.056C260.952 232.812 260.708 232.2 260.891 231.221C261.074 230.243 261.686 229.325 262.541 228.346C263.458 227.49 264.619 227.123 265.597 227.062C266.636 227.001 267.247 227.184 267.247 227.184Z" fill="#54BA5F"/>
<path d="M236.444 229.203C236.444 229.203 236.933 229.692 237.422 230.61C237.911 231.527 238.278 232.689 238.156 233.912C237.85 236.176 237.117 237.705 235.833 238.011C235.222 238.133 234.672 237.644 234.244 236.787C233.755 235.87 233.633 234.646 233.755 233.362C233.877 232.139 234.672 231.099 235.222 230.426C235.833 229.631 236.444 229.203 236.444 229.203Z" fill="#48A34B"/>
<path d="M240.965 228.652C240.965 228.652 241.393 229.08 241.76 229.876C242.127 230.671 242.31 231.772 242.066 232.75C241.516 234.708 240.599 235.87 239.499 235.87C239.01 235.809 238.582 235.38 238.337 234.585C238.093 233.79 238.154 232.75 238.398 231.772C238.643 230.793 239.376 230.059 239.865 229.57C240.415 229.019 240.965 228.652 240.965 228.652Z" fill="#48A34B"/>
<path d="M220.062 233.24C220.062 233.24 221.773 233.668 222.507 235.136C223.118 236.42 223.118 237.766 222.446 238.133C221.773 238.5 220.734 237.644 220.001 236.237C219.695 235.564 219.695 234.83 219.818 234.28C219.879 233.668 220.062 233.24 220.062 233.24Z" fill="#48A34B"/>
<path d="M203.988 228.041C203.988 228.041 204.293 228.775 204.477 229.814C204.66 230.915 204.66 232.261 204.11 233.423C203.01 235.747 201.604 237.093 200.198 236.91C199.526 236.787 199.098 236.114 198.976 235.075C198.854 233.974 199.098 232.689 199.709 231.344C200.259 230.12 201.421 229.264 202.337 228.775C203.193 228.285 203.988 228.041 203.988 228.041Z" fill="#48A34B"/>
<path d="M207.838 229.876C207.838 229.876 208.755 232.628 207.594 234.585C206.494 236.604 204.721 237.766 203.682 237.277C202.643 236.787 202.704 234.647 203.866 232.567C205.027 230.487 207.838 229.876 207.838 229.876Z" fill="#48A34B"/>
<path d="M186.202 247.491C186.202 247.491 186.569 246.696 187.241 245.84C187.852 244.984 188.891 243.944 190.297 243.516C191.825 243.149 193.231 243.026 194.392 243.516C195.492 243.883 196.042 244.494 196.042 245.167C196.042 245.84 195.431 246.513 194.698 247.063C193.964 247.491 192.925 248.103 191.764 248.409C190.542 248.776 189.197 248.592 188.097 248.286C186.936 247.919 186.202 247.491 186.202 247.491Z" fill="#48A34B"/>
<path d="M191.09 252.446C191.09 252.446 191.029 251.834 191.395 251.039C191.762 250.244 192.679 249.326 193.779 249.02C194.879 248.715 195.857 248.714 196.407 248.898C197.079 249.081 197.446 249.326 197.752 249.754C198.057 250.182 197.813 250.855 197.202 251.406C196.529 251.956 195.674 252.323 194.818 252.629C193.901 252.874 193.168 252.751 192.434 252.629C191.701 252.446 191.09 252.446 191.09 252.446Z" fill="#48A34B"/>
<path d="M215.967 202.168C215.967 202.168 216.64 202.412 217.434 202.779C218.107 203.146 219.146 203.513 219.696 204.308C220.979 205.776 221.774 207.428 221.101 208.345C220.429 209.202 218.351 208.835 216.64 206.939C215.906 205.899 215.54 204.737 215.662 203.758C215.723 202.779 215.967 202.168 215.967 202.168Z" fill="#90D786"/>
<path d="M220.737 199.782C220.737 199.782 221.226 200.088 221.776 200.516C222.326 201.005 222.937 201.617 223.12 202.473C223.609 204.308 223.242 205.96 222.387 206.082C221.531 206.205 220.431 204.981 220.003 203.391C219.759 202.473 219.942 201.556 220.187 200.883C220.431 200.21 220.737 199.782 220.737 199.782Z" fill="#90D786"/>
<path d="M225.013 196.051C225.013 196.051 227.029 197.641 227.152 199.782C227.274 201.923 226.479 203.697 225.379 203.697C224.34 203.758 223.362 202.045 223.24 199.966C223.118 197.825 225.013 196.051 225.013 196.051Z" fill="#90D786"/>
<path d="M231.309 194.889C231.309 194.889 231.737 195.623 231.982 196.724C232.287 197.825 232.409 199.171 232.104 200.333C231.737 201.556 231.37 202.473 230.881 203.207C230.392 203.88 229.842 204.431 229.17 204.553C228.498 204.675 227.764 204.186 227.336 203.085C226.909 202.045 226.848 200.455 227.275 198.987C227.703 197.519 228.742 196.479 229.659 195.868C230.515 195.195 231.309 194.889 231.309 194.889Z" fill="#90D786"/>
<path d="M236.444 198.62C236.444 198.62 237.238 200.7 236.444 202.229C235.71 203.758 234.732 204.675 233.816 204.553C232.96 204.431 232.654 202.596 233.51 200.822C234.305 199.109 236.444 198.62 236.444 198.62Z" fill="#90D786"/>
<path d="M240.476 201.801C240.476 201.801 240.537 202.106 240.537 202.535C240.537 202.902 240.537 203.391 240.292 203.819C239.864 204.614 239.314 205.165 238.825 205.104C238.336 205.042 238.092 204.003 238.642 202.963C238.948 202.473 239.375 202.168 239.803 201.984C240.17 201.801 240.476 201.801 240.476 201.801Z" fill="#90D786"/>
<path d="M226.052 215.441C226.052 215.441 226.602 215.746 227.214 216.297C227.764 216.786 228.558 217.398 228.864 218.254C229.597 219.967 229.719 221.741 228.803 222.23C227.947 222.719 226.358 221.741 225.441 219.722C225.074 218.682 225.074 217.581 225.441 216.725C225.686 215.869 226.052 215.441 226.052 215.441Z" fill="#90D786"/>
<path d="M230.634 216.236C230.634 216.236 231.001 216.419 231.49 216.847C231.917 217.276 232.468 217.887 232.651 218.744C232.957 220.273 232.468 221.618 231.673 221.741C230.878 221.924 230.084 220.762 229.839 219.172C229.717 218.438 229.901 217.765 230.084 217.214C230.328 216.664 230.634 216.236 230.634 216.236Z" fill="#90D786"/>
<path d="M239.44 211.22C239.44 211.22 239.378 211.098 239.134 211.159C239.012 211.22 239.073 211.281 239.012 211.342C239.012 211.465 239.073 211.587 239.134 211.771C239.256 212.138 239.44 212.627 239.562 213.239C239.867 214.401 240.112 215.93 239.684 217.337C239.256 218.744 238.584 219.967 237.912 220.762C237.239 221.557 236.567 221.863 235.772 221.985C234.978 222.046 234.244 221.251 233.939 220.028C233.633 218.805 233.694 217.276 234.183 215.685C234.672 214.095 235.833 212.933 236.872 212.199C237.423 211.832 237.912 211.526 238.278 211.404C238.462 211.342 238.645 211.22 238.767 211.22C238.828 211.159 238.889 211.159 239.012 211.098C239.378 211.037 239.44 211.22 239.44 211.22Z" fill="#90D786"/>
<path d="M242.553 215.869C242.553 215.869 242.737 216.358 242.92 216.97C243.103 217.581 243.226 218.377 242.859 219.233C242.553 220.028 242.003 220.823 241.331 221.19C241.025 221.435 240.659 221.496 240.353 221.435C240.048 221.435 239.925 221.312 239.803 221.129C239.62 220.273 239.559 219.539 240.109 218.132C240.353 217.459 240.964 216.847 241.514 216.48C242.064 216.052 242.553 215.869 242.553 215.869Z" fill="#90D786"/>
<path d="M246.098 219.049C246.098 219.049 245.915 220.273 245.181 220.762C244.509 221.374 243.653 221.618 243.287 221.312C242.92 221.007 243.226 220.089 244.02 219.355C244.448 219.049 244.998 218.988 245.426 218.988C245.793 218.927 246.098 219.049 246.098 219.049Z" fill="#90D786"/>
<path d="M223.239 221.557C223.239 221.557 223.484 221.496 223.789 221.496C224.095 221.496 224.523 221.618 224.889 221.924C225.562 222.536 225.623 223.514 225.195 223.637C224.767 223.759 224.339 223.453 223.85 222.964C223.606 222.78 223.484 222.413 223.361 222.108C223.3 221.802 223.239 221.557 223.239 221.557Z" fill="#90D786"/>
<path d="M11.6778 237.414C-3.55342 235.452 -16.8996 228.057 -19.3125 214.55C-22.5548 197.119 -2.64859 182.932 -8.00215 165.501C-11.0936 155.39 -18.0307 147.089 -14.0343 137.733C-8.83158 125.584 3.5344 113.963 7.68152 101.588C10.773 92.231 21.1785 80.9122 34.6756 84.6096C48.3988 88.3071 48.625 105.059 55.7128 113.51C63.8562 123.244 79.8415 129.658 80.2939 142.788C80.7464 155.39 64.8365 164.143 65.2889 176.217C65.7413 189.12 84.9689 196.213 83.8379 210.399C81.9528 233.867 36.4852 238.998 16.1266 237.791C14.4677 237.715 13.1105 237.564 11.6778 237.414Z" fill="#AEDA3A"/>
<path d="M26.4564 212.059C12.3562 208.513 40.5567 187.46 26.4564 176.896C19.444 173.349 15.9001 176.896 8.88769 180.442C-1.06541 187.083 -4.76013 199.911 -16.8999 198.477C-19.0112 203.608 -20.3684 208.966 -19.3882 214.55C-16.9753 228.057 -3.62909 235.452 11.6022 237.414C13.0348 237.564 14.3921 237.715 15.8247 237.791C36.1833 238.998 81.6509 233.867 83.536 210.399C84.2146 202.325 78.2578 196.59 72.9043 190.705C57.5222 201.42 45.0808 219.077 26.4564 212.059Z" fill="#8FCB00"/>
<path d="M28.7188 313.778L40.3307 305.93L35.2033 173.802C33.4691 157.276 31.0562 152.598 28.7188 153.579V313.778Z" fill="#BF8A34"/>
<path d="M35.6551 179.009C34.7503 179.009 33.7701 179.009 32.8652 178.933L33.016 175.462C36.7108 175.613 46.5885 175.915 49.4537 171.161C51.4896 167.765 51.4142 163.162 49.2275 156.975L52.5452 155.767C55.1089 162.936 55.1089 168.595 52.5452 172.896C49.3783 178.028 42.2151 179.009 35.6551 179.009Z" fill="#BF8A34"/>
<path d="M22.4601 209.796C20.6504 209.796 18.7653 209.645 16.8049 209.117C11.4513 207.683 10.6219 203.759 9.86787 200.363C9.71706 199.533 9.49086 198.779 9.26465 197.949L12.6578 196.968C12.9594 197.873 13.1102 198.779 13.3364 199.609C14.0904 203.155 14.6182 204.891 17.7097 205.721C20.575 206.475 23.3649 206.325 26.2302 206.098C27.9644 205.947 29.6987 205.872 31.5083 205.947L31.3575 209.494C29.6987 209.418 28.0398 209.569 26.381 209.645C25.1745 209.72 23.8173 209.796 22.4601 209.796Z" fill="#BF8A34"/>
<path d="M39.953 244.129C37.9172 244.129 36.0321 243.752 34.2979 242.997L35.7305 239.753C40.7824 242.016 48.2473 239.3 52.6206 235.678C55.9383 232.961 55.7875 226.397 54.7319 221.567L58.2004 220.813C59.5576 226.849 59.4068 234.622 54.9581 238.394C50.9618 241.639 45.2312 244.129 39.953 244.129Z" fill="#BF8A34"/>
<path d="M26.0042 163.238C22.7619 163.238 19.2934 162.86 16.6543 159.842C13.6382 156.371 13.789 152.296 13.9398 148.297V147.542L17.4837 147.693V148.448C17.3329 151.994 17.2575 155.088 19.3688 157.503C21.4047 159.842 24.3454 159.767 27.7385 159.691H29.1711V163.162C29.0957 163.162 26.6074 163.238 26.0042 163.238Z" fill="#BF8A34"/>
<path d="M-4.98677 112.378C-4.98677 112.378 -4.00654 112.68 -2.9509 113.51C-1.81987 114.34 -0.613432 115.472 -0.0856161 117.057C0.970016 120.075 0.819213 122.49 -0.538029 123.546C-1.89527 124.603 -4.68516 122.414 -5.81619 119.094C-6.34401 117.51 -6.1178 115.774 -5.81619 114.567C-5.43918 113.359 -4.98677 112.378 -4.98677 112.378Z" fill="#AEDA3A"/>
<path d="M65.8923 118.113C65.8923 118.113 65.8923 118.717 65.7415 119.472C65.5907 120.226 65.3644 121.132 64.8366 121.811C63.781 123.169 62.8762 123.848 61.8205 123.773C60.8403 123.773 60.5387 121.433 61.9713 119.547C62.7254 118.717 63.7056 118.264 64.535 118.113C65.3644 118.038 65.8923 118.113 65.8923 118.113Z" fill="#AEDA3A"/>
<path d="M67.2493 177.65C67.1739 177.726 67.3248 179.914 66.4953 181.197C65.6659 182.63 64.4595 183.687 63.5546 183.385C62.6498 183.083 62.499 181.272 63.5546 179.461C64.7611 177.499 67.3248 177.65 67.2493 177.65Z" fill="#AEDA3A"/>
<path d="M13.1099 86.2697C13.1099 86.2697 15.8244 86.8734 16.88 88.7599C18.0865 90.3445 18.3881 92.231 17.6341 93.061C16.88 93.8911 14.9196 92.9855 13.4115 90.9482C12.2051 88.8353 13.1099 86.2697 13.1099 86.2697Z" fill="#AEDA3A"/>
<path d="M17.4833 83.1005C17.5587 83.1759 19.67 83.9305 20.4994 85.6661C21.4042 87.5525 20.9518 89.8163 19.9716 89.8163C18.9159 89.8163 18.0111 88.7599 17.1817 87.1753C16.4277 85.4397 17.4833 83.025 17.4833 83.1005Z" fill="#AEDA3A"/>
<path d="M26.5316 78.422C26.5316 78.422 28.8691 80.384 29.0199 82.8741C29.1707 85.3642 28.2658 87.4771 26.984 87.5525C25.7022 87.628 24.5711 85.6661 24.4957 83.1005C24.3449 80.6103 26.5316 78.422 26.5316 78.422Z" fill="#AEDA3A"/>
<path d="M44.478 85.3642C44.478 85.3642 45.0813 87.8544 44.0256 89.5899C42.97 91.25 41.839 92.231 40.7079 92.0046C39.7277 91.7782 39.5015 89.5145 40.7079 87.5525C41.9144 85.6661 44.478 85.3642 44.478 85.3642Z" fill="#AEDA3A"/>
<path d="M50.0575 90.0427C50.0575 90.0427 50.2083 92.9855 48.7003 94.4947C47.343 96.2303 45.5334 97.0603 44.4777 96.4566C43.4975 95.7775 43.8745 93.6647 45.458 91.7027C47.1922 89.8917 50.0575 90.0427 50.0575 90.0427Z" fill="#AEDA3A"/>
<path d="M6.32433 132.073C6.32433 132.073 7.00295 132.752 7.68157 133.431C8.28479 134.035 9.34042 135.016 9.71743 136.148C10.6223 138.563 10.5469 140.6 9.41582 141.43C8.36019 142.26 6.02272 140.6 5.11789 137.808C4.66548 136.374 4.81628 135.016 5.2687 133.809C5.72111 132.526 6.32433 132.073 6.32433 132.073Z" fill="#D0EF4D"/>
<path d="M15.6738 130.79C15.6738 130.79 16.1262 131.62 16.4278 132.601C16.7294 133.658 17.1064 134.941 16.8802 136.148C16.5032 138.638 15.5984 140.449 14.1658 140.751C12.8085 141.053 11.2251 138.412 11.8283 135.242C12.1299 133.733 13.0347 132.45 14.015 131.771C14.9198 131.168 15.6738 130.79 15.6738 130.79Z" fill="#D0EF4D"/>
<path d="M21.8569 132.526C21.8569 132.526 22.8371 135.469 21.7061 137.506C20.8013 139.619 19.1424 141.053 17.8606 140.6C16.6541 140.223 16.5033 137.883 17.6344 135.393C18.9162 133.205 21.8569 132.526 21.8569 132.526Z" fill="#D0EF4D"/>
<path d="M29.6233 135.092C29.6233 135.092 29.3217 137.959 27.6629 139.242C26.2302 140.751 24.3452 141.355 23.3649 140.675C22.4601 139.996 23.0633 137.959 24.873 136.072C26.8334 134.563 29.6233 135.092 29.6233 135.092Z" fill="#D0EF4D"/>
<path d="M56.6177 126.338C56.6177 126.338 56.4669 127.093 56.1653 127.998C55.9391 128.753 55.6375 129.96 54.9588 130.715C53.5262 132.375 51.8673 133.431 50.7363 132.828C49.6807 132.3 49.8315 129.885 51.5657 127.847C52.546 126.867 53.7524 126.338 54.8834 126.263C55.9391 126.112 56.6177 126.338 56.6177 126.338Z" fill="#D0EF4D"/>
<path d="M61.2921 131.545C61.2921 131.545 61.0659 132.375 60.6889 133.356C60.3119 134.261 59.7841 135.469 58.7284 136.223C57.522 137.053 56.3909 137.657 55.0337 137.657C53.8273 137.657 53.0732 137.355 52.9224 136.676C52.7716 135.997 53.1486 135.242 53.6011 134.488C54.0535 133.884 54.8075 132.979 55.7877 132.3C56.9188 131.469 58.2006 131.168 59.4824 131.243C60.5381 131.319 61.2921 131.545 61.2921 131.545Z" fill="#D0EF4D"/>
<path d="M66.3447 137.129C66.2693 137.204 64.7613 139.242 62.8762 139.845C60.9158 140.449 58.8799 140.298 58.4275 139.242C58.0505 138.185 59.3323 136.601 61.6698 135.922C64.1581 135.167 66.4201 137.204 66.3447 137.129Z" fill="#D0EF4D"/>
<path d="M16.8805 106.191C16.8805 106.191 17.2576 106.945 17.9362 107.625C18.5394 108.304 19.3688 109.134 19.8212 110.266C20.5753 112.68 20.1982 115.548 18.841 115.623C17.5592 115.699 16.0511 114.34 15.2217 111.699C14.7693 110.417 15.0709 108.907 15.5987 107.7C15.8249 107.172 16.2019 106.719 16.5035 106.493C16.7297 106.266 16.8805 106.191 16.8805 106.191Z" fill="#D0EF4D"/>
<path d="M24.1948 103.323C24.1948 103.323 24.7226 104.078 25.175 104.984C25.552 105.889 26.1553 107.021 26.2307 108.228C26.3061 110.718 25.4766 113.359 24.1194 113.359C22.7622 113.359 21.4049 111.398 21.1787 108.455C21.1787 106.87 21.7819 105.436 22.6868 104.606C23.5162 103.701 24.1948 103.323 24.1948 103.323Z" fill="#D0EF4D"/>
<path d="M32.1112 103.55C32.1112 103.55 32.4882 104.304 32.7144 105.285C32.9406 106.191 33.2422 107.398 33.016 108.606C32.4882 111.171 30.3015 113.359 29.2459 112.605C28.7181 112.303 28.3411 111.548 28.2657 110.643C28.1903 109.888 28.1149 108.681 28.4165 107.549C28.7181 106.191 29.5475 105.21 30.4524 104.455C31.4326 103.776 32.1112 103.55 32.1112 103.55Z" fill="#D0EF4D"/>
<path d="M41.0092 104.078C41.0092 104.078 41.16 104.757 41.0092 105.663C40.9338 106.644 40.5568 107.7 39.8027 108.606C38.2947 110.19 36.8621 111.02 35.731 110.492C34.6754 110.039 34.977 107.625 36.6358 105.814C37.3899 104.984 38.5209 104.531 39.3503 104.38C40.2552 104.153 41.0092 104.078 41.0092 104.078Z" fill="#D0EF4D"/>
<path d="M1.12074 169.425C1.12074 169.425 3.91062 169.878 5.04166 171.614C6.3989 173.651 6.5497 175.764 5.56947 176.292C4.58924 176.745 2.77959 175.688 1.72396 174.028C1.12074 173.047 0.894531 171.84 0.894531 170.934C0.894531 170.029 1.12074 169.425 1.12074 169.425Z" fill="#D0EF4D"/>
<path d="M9.34053 167.916C9.34053 167.916 9.71754 168.067 10.17 168.52C10.6224 168.897 11.1502 169.576 11.3764 170.482C11.5272 172.142 10.9994 173.425 10.17 173.5C9.34053 173.5 8.66191 172.368 8.5865 170.859C8.4357 170.18 8.58651 169.501 8.88812 168.972C9.11432 168.293 9.34053 167.916 9.34053 167.916Z" fill="#D0EF4D"/>
<path d="M52.0178 184.668C52.0178 184.668 53.0734 188.365 52.3194 190.856C51.9424 192.063 51.5654 193.044 51.113 193.874C50.6605 194.628 50.1327 195.383 49.3033 195.609C48.5493 195.836 47.6445 195.383 46.9658 194.176C46.3626 192.968 46.1364 191.006 46.7396 189.195C47.3428 187.384 48.7001 186.177 49.9065 185.573C51.0376 184.894 52.0178 184.668 52.0178 184.668Z" fill="#D0EF4D"/>
<path d="M58.5023 187.007C58.5023 187.007 58.7285 188.064 58.8039 189.271C58.8039 190.403 59.0301 191.987 58.5023 193.27C57.522 196.062 55.637 198.326 54.0535 197.873C52.5455 197.42 51.7915 194.628 52.9225 191.233C53.6765 189.573 54.9584 188.29 56.3156 187.686C57.5974 187.083 58.5023 187.007 58.5023 187.007Z" fill="#D0EF4D"/>
<path d="M0.895081 182.178C0.895081 182.178 1.4983 182.781 2.10152 183.536C2.62934 184.291 3.38336 185.272 3.53416 186.479C3.98658 188.969 3.15715 191.459 1.87531 191.459C0.518068 191.459 -0.612965 189.724 -1.06538 187.234C-1.21618 185.875 -0.839174 184.592 -0.235955 183.612C0.367264 182.631 0.895081 182.178 0.895081 182.178Z" fill="#8FCB00"/>
<path d="M6.17269 242.167C6.17269 242.167 6.02188 241.111 6.09728 239.753C6.17269 238.395 6.32349 236.885 7.22832 235.678C8.81177 232.886 11.3 231.301 12.7327 232.131C14.1653 232.961 14.0145 235.98 12.2803 238.923C11.3 240.356 9.64119 241.262 8.35935 241.715C7.15292 242.167 6.17269 242.167 6.17269 242.167Z" fill="#8FCB00"/>
<path d="M16.6537 240.734C16.6537 240.734 15.8997 238.847 16.7291 237.263C17.4831 235.829 18.6896 234.999 19.4436 235.301C20.1976 235.603 20.1976 237.187 19.3682 238.772C18.6896 240.206 16.6537 240.734 16.6537 240.734Z" fill="#8FCB00"/>
<path d="M63.2526 190.101C63.2526 190.101 65.9671 192.44 65.8917 195.609C65.8163 198.779 64.4591 201.193 62.951 201.118C61.443 200.967 60.2365 198.477 60.3119 195.534C60.3873 192.667 63.2526 190.101 63.2526 190.101Z" fill="#8FCB00"/>
</g>
<defs>
<clipPath id="clip0">
<path d="M0 30C0 13.4315 13.4315 0 30 0H410C426.569 0 440 13.4315 440 30V220C440 236.569 426.569 250 410 250H30C13.4315 250 0 236.569 0 220V30Z" fill="white"/>
</clipPath>
</defs>
</svg>
