<svg width="90" height="90" viewBox="0 0 70 70" fill="none" xmlns="http://www.w3.org/2000/svg">
<path d="M48.6227 36.9069C48.6227 36.9069 60.8944 37.9941 62.9378 39.1697M48.6227 36.9069C48.6227 36.9069 56.0209 38.9074 58.1706 39.5984L57.562 41.6143M48.6227 36.9069C48.6227 36.9069 43.1939 28.9405 41.3084 29.7447M41.3084 29.7447C39.9646 30.2793 37.1938 32.7162 36.0566 33.6259M41.3084 29.7447C42.4486 29.2556 43.6151 28.834 44.8022 28.4818M23.0397 65.6837C23.0397 63.2738 23.3778 57.5736 26.601 49.2319C27.4739 46.8356 30.0835 42.4774 30.0835 42.4774M30.0835 42.4774C30.0835 42.4774 21.5182 34.8192 18.8134 35.0278H18.0922L15.8381 35.2132M30.0835 42.4774C30.0835 42.4774 24.2777 29.9575 23.2088 27.5318M30.0835 42.4774C30.0835 42.4774 32.8559 39.5231 33.3631 39.048C34.4901 38.0633 35.031 37.6114 35.155 36.2327C35.2404 35.3003 35.5503 34.4045 36.0566 33.6259M15.8381 35.2132L12.7389 39.3377C12.6339 39.4779 12.4991 39.5915 12.3447 39.6698C12.1904 39.7482 12.0207 39.7891 11.8485 39.7895M15.8381 35.2132C13.8346 35.3558 8.82382 35.4699 6.86719 35.0046M23.2088 27.5318C22.6114 26.3732 19.6361 25.8982 19.1966 25.8403C18.7571 25.7824 17.9907 25.7244 17.3709 25.6781C14.9027 25.5043 11.826 25.2842 8.94088 22.5731M23.2088 27.5318L25.4628 25.064M16.3032 20.151C16.4159 21.5876 15.7705 23.7581 15.0492 25.4496M36.0566 33.6259L34.6756 24.3348M34.6756 24.3348L30.6747 23.4543M34.6756 24.3348C35.7473 22.395 36.9133 20.5119 38.1693 18.6926C37.9439 16.0163 37.0423 12.3241 35.7913 11.1191M44.8022 28.4818L43.9261 20.2299M44.8022 28.4818L50.1801 20.2299M44.8022 28.4818L48.2057 27.5086C48.2829 27.4845 48.3652 27.4845 48.4424 27.5086C49.0735 27.3464 49.7159 27.1842 50.3583 27.0452C52.1123 26.6591 56.802 27.0112 58.3735 26.122C58.2044 24.4189 58.7311 21.3139 57.7393 19.7846" stroke="#111111" stroke-width="3.5" stroke-linecap="round" stroke-linejoin="round"/>
<path d="M27 8.5C27 9.78558 26.6188 11.0423 25.9046 12.1112C25.1903 13.1801 24.1752 14.0132 22.9874 14.5052C21.7997 14.9972 20.4928 15.1259 19.2319 14.8751C17.971 14.6243 16.8128 14.0052 15.9038 13.0962C14.9948 12.1872 14.3757 11.029 14.1249 9.76809C13.8741 8.50721 14.0028 7.20028 14.4948 6.01256C14.9868 4.82484 15.8199 3.80968 16.8888 3.09545C17.9577 2.38122 19.2144 2 20.5 2C22.2229 2.00314 23.8744 2.68896 25.0927 3.90727C26.311 5.12558 26.9969 6.77706 27 8.5V8.5Z" stroke="#FF9C12" stroke-width="3.5" stroke-linecap="round" stroke-linejoin="round"/>
</svg>
