<svg width="90" height="90" viewBox="0 0 70 70" fill="none" xmlns="http://www.w3.org/2000/svg">
<path d="M16.4212 39.9058V15.8783C16.4212 11.9408 19.612 8.75 23.5495 8.75C27.487 8.75 30.6778 11.9408 30.6778 15.8783V39.9058V39.9117C33.5478 42.0817 35.432 45.4883 35.432 49.3617C35.432 55.93 30.112 61.25 23.5495 61.25C16.987 61.25 11.667 55.93 11.667 49.3675C11.667 45.4942 13.5512 42.0817 16.4212 39.9175" stroke="#111111" stroke-width="3.5" stroke-linecap="round" stroke-linejoin="round"/>
<path d="M43.75 20.4173H58.3333" stroke="#111111" stroke-width="3.5" stroke-linecap="round" stroke-linejoin="round"/>
<path d="M43.75 11.6673H58.3333" stroke="#111111" stroke-width="3.5" stroke-linecap="round" stroke-linejoin="round"/>
<path d="M43.75 29.1673H58.3333" stroke="#111111" stroke-width="3.5" stroke-linecap="round" stroke-linejoin="round"/>
<path d="M43.75 37.9173H58.3333" stroke="#111111" stroke-width="3.5" stroke-linecap="round" stroke-linejoin="round"/>
<path fill-rule="evenodd" clip-rule="evenodd" d="M23.334 53.959C25.7502 53.959 27.709 52.0002 27.709 49.584C27.709 47.1677 25.7502 45.209 23.334 45.209C20.9177 45.209 18.959 47.1677 18.959 49.584C18.959 52.0002 20.9177 53.959 23.334 53.959Z" stroke="#06C9F3" stroke-width="3.5" stroke-linecap="round" stroke-linejoin="round"/>
<path d="M23.3333 45.2083V26.25" stroke="#06C9F3" stroke-width="3.5" stroke-linecap="round" stroke-linejoin="round"/>
</svg>
